# Blender v2.80 (sub 45) OBJ File: ''
# www.blender.org
mtllib barrel.mtl
o barrel
v 0.300000 0.000000 0.519615
v 0.600000 0.000000 -0.000000
v 0.300000 0.000000 -0.519615
v -0.300000 0.000000 0.519615
v -0.300000 0.000000 -0.519615
v -0.600000 0.000000 -0.000000
v 0.300000 -0.500000 0.519615
v 0.600000 -0.500000 -0.000000
v 0.300000 -0.500000 -0.519615
v -0.300000 -0.500000 -0.519615
v -0.600000 -0.500000 -0.000000
v -0.300000 -0.500000 0.519615
v 0.300000 -1.500000 -0.519615
v 0.600000 -1.500000 -0.000000
v 0.300000 -1.500000 0.519615
v -0.300000 -1.500000 0.519615
v -0.300000 -1.500000 -0.519615
v -0.600000 -1.500000 -0.000000
v 0.300000 -1.000000 0.519615
v 0.600000 -1.000000 -0.000000
v -0.300000 -1.000000 0.519615
v -0.600000 -1.000000 -0.000000
v -0.300000 -1.000000 -0.519615
v 0.300000 -1.000000 -0.519615
vt -1.181103 -0.000004
vt -0.000004 2.045732
vt -1.181103 4.091458
vt -3.543311 -0.000004
vt -3.543311 4.091458
vt -4.724410 2.045732
vt 0.590556 -0.000004
vt 0.590556 1.968505
vt -1.771652 1.968505
vt -1.771652 -0.000004
vt -4.133860 1.968505
vt -4.133860 -0.000004
vt -3.543311 -0.000004
vt -1.181103 -0.000004
vt -1.181103 1.968505
vt -3.543311 1.968505
vt -0.590553 1.968505
vt -0.590553 -0.000004
vt 1.771655 -0.000004
vt 1.771655 1.968505
vt 1.771655 1.968505
vt 1.771655 -0.000004
vt 4.133863 -0.000004
vt 4.133863 1.968505
vt 1.181105 -0.000004
vt 3.543303 -0.000004
vt 3.543303 1.968505
vt 1.181105 1.968505
vt 1.181105 4.091458
vt -0.000004 2.045732
vt 1.181105 -0.000004
vt 3.543303 -0.000004
vt 3.543303 4.091458
vt 4.724412 2.045732
vt 0.590556 3.937003
vt 0.590556 5.905511
vt -1.771652 5.905511
vt -1.771652 3.937003
vt 1.181105 3.937003
vt 3.543303 3.937003
vt 3.543303 5.905511
vt 1.181105 5.905511
vt 1.771655 5.905511
vt 1.771655 3.937003
vt 4.133863 3.937003
vt 4.133863 5.905511
vt -0.590553 5.905511
vt -0.590553 3.937003
vt 1.771655 3.937003
vt 1.771655 5.905511
vt -3.543311 3.937003
vt -1.181103 3.937003
vt -1.181103 5.905511
vt -3.543311 5.905511
vt -4.133860 5.905511
vt -4.133860 3.937003
vt 3.543303 1.968505
vt 1.181105 1.968505
vt 1.181105 -0.000004
vt 3.543303 1.968505
vt 1.181105 1.968505
vt 1.181105 -0.000004
vt 1.181105 1.968505
vt 1.181105 -0.000004
vt 3.543303 1.968505
vt 1.181105 -0.000004
vt 3.543303 1.968505
vt 1.181105 1.968505
vt 3.543303 1.968505
vt 1.181105 1.968505
vt 1.181105 -0.000004
vt 3.543303 1.968505
vt 1.181105 1.968505
vt 1.181105 -0.000004
vt 1.181105 1.968505
vt 1.181105 -0.000004
vt 3.543303 1.968505
vt 3.543303 1.968505
vt 1.181105 1.968505
vt 1.181105 -0.000004
vn -0.0039 1.0000 0.0000
vn 0.8667 -0.0039 0.4989
vn 0.8667 -0.0039 -0.4989
vn -0.0039 -0.0039 -1.0000
vn -0.8667 -0.0039 -0.4989
vn -0.8667 -0.0039 0.4989
vn -0.0039 -0.0039 1.0000
vn -0.0039 -1.0000 0.0000
usemtl metal
s 1
f 1/1/1 2/2/1 3/3/1
f 3/3/1 4/4/1 1/1/1
f 3/3/1 5/5/1 4/4/1
f 5/5/1 6/6/1 4/4/1
f 1/7/2 7/8/2 8/9/2
f 8/9/2 2/10/2 1/7/2
f 2/10/3 8/9/3 9/11/3
f 9/11/3 3/12/3 2/10/3
f 5/13/4 3/14/4 9/15/4
f 9/15/4 10/16/4 5/13/4
f 11/17/5 6/18/5 5/19/5
f 5/19/5 10/20/5 11/17/5
f 12/21/6 4/22/6 6/23/6
f 6/23/6 11/24/6 12/21/6
f 1/25/7 4/26/7 12/27/7
f 12/27/7 7/28/7 1/25/7
f 13/29/8 14/30/8 15/31/8
f 15/31/8 16/32/8 13/29/8
f 16/32/8 17/33/8 13/29/8
f 16/32/8 18/34/8 17/33/8
f 19/35/2 15/36/2 14/37/2
f 14/37/2 20/38/2 19/35/2
f 19/39/7 21/40/7 16/41/7
f 16/41/7 15/42/7 19/39/7
f 16/43/6 21/44/6 22/45/6
f 22/45/6 18/46/6 16/43/6
f 18/47/5 22/48/5 23/49/5
f 23/49/5 17/50/5 18/47/5
f 23/51/4 24/52/4 13/53/4
f 13/53/4 17/54/4 23/51/4
f 20/38/3 14/37/3 13/55/3
f 13/55/3 24/56/3 20/38/3
usemtl _defaultMat
f 7/57/2 19/58/2 20/59/2
f 20/60/2 8/61/2 7/62/2
f 7/57/7 12/63/7 21/64/7
f 21/65/7 19/58/7 7/62/7
f 21/65/6 12/63/6 11/66/6
f 11/67/6 22/68/6 21/64/6
f 22/69/5 11/70/5 10/71/5
f 10/72/5 23/73/5 22/74/5
f 10/72/4 9/75/4 24/76/4
f 24/77/4 23/73/4 10/71/4
f 8/78/3 20/79/3 24/76/3
f 24/77/3 9/75/3 8/80/3
